<svg width="204" height="44" viewBox="0 0 204 44" fill="none" xmlns="http://www.w3.org/2000/svg">
<path d="M1.24422 7.81727C3.13885 8.33262 2.94119 10.3844 2.94119 10.8564V37.8373C2.94119 40.0865 2.62783 41.4303 1.55758 42.4947H14.7862C13.7208 41.4303 13.4074 40.0865 13.4074 37.8373V27.1114C13.4074 22.7286 15.0658 21.51 16.8785 21.51C18.6189 21.51 19.1299 23.2054 19.1299 25.0211V37.8373C19.1299 40.0865 18.8165 41.4303 17.7511 42.4947H30.9798C29.9095 41.4303 29.5961 40.0865 29.5961 37.8373V31.0945L29.5576 23.557C29.5576 19.4583 28.5693 14.2904 22.8034 14.2904C16.1313 14.2904 15.3021 19.7714 13.6822 19.7714C13.6437 19.7714 13.5231 19.7714 13.4074 19.7714V3.99312C13.4074 3.20325 13.3689 2.4519 12.2215 2.4519C9.89298 2.4519 2.62783 6.00634 1.08513 6.75287C1.00799 6.7914 0.651245 6.87327 0.651245 7.26821C0.651245 7.74021 1.1237 7.77874 1.24422 7.81727Z" fill="#103954"/>
<path d="M36.7784 39.0221C39.4637 41.7433 42.9782 43.087 46.5746 43.087C50.2433 43.087 53.994 41.6277 56.8769 38.709C62.5271 32.9872 62.6813 23.9133 57.1951 18.389C54.5098 15.6678 50.9954 14.3289 47.4038 14.3289C43.7302 14.3289 39.9795 15.7882 37.0966 18.6684C31.4079 24.3853 31.2922 33.4592 36.7784 39.0221ZM45.0704 16.4191C47.64 16.0242 50.5615 21.2306 51.5884 28.0553C52.6152 35.0005 51.3907 40.7993 48.8645 41.1942C46.295 41.5892 43.3735 36.4213 42.3081 29.5532C41.2426 22.6514 42.4671 16.8141 45.0704 16.4191Z" fill="#103954"/>
<path d="M62.4041 7.81727C64.2987 8.33262 64.101 10.3844 64.101 10.8564V39.2581C64.101 41.2714 64.5735 42.4947 66.2753 42.4947H75.9461C74.8806 41.4303 74.5673 40.0865 74.5673 37.8373V3.99312C74.5673 3.20325 74.5287 2.4519 73.3813 2.4519C71.0528 2.4519 63.7877 6.00634 62.245 6.75287C62.1678 6.7914 61.8111 6.87327 61.8111 7.26821C61.8111 7.74021 62.2835 7.77874 62.4041 7.81727Z" fill="#103954"/>
<path d="M76.3415 19.1019C76.3415 19.5739 76.8139 19.6124 76.9344 19.6557C78.4337 20.1663 78.2361 22.218 78.2361 22.69V37.8373C78.2361 40.0865 77.9227 41.4303 76.8525 42.4947H90.0811C89.0157 41.4303 88.7023 40.0865 88.7023 37.8373V15.8268C88.7023 15.0369 88.6638 14.2904 87.5164 14.2904C85.1879 14.2904 78.318 17.84 76.7753 18.5865C76.6982 18.6299 76.3415 18.7069 76.3415 19.1019ZM83.3704 0.718018C79.8945 0.718018 77.6045 3.00576 77.6045 6.47832C77.6045 9.95088 79.8945 12.2386 83.3704 12.2386C86.8463 12.2386 89.1362 9.95088 89.1362 6.47832C89.1362 3.00576 86.8463 0.718018 83.3704 0.718018Z" fill="#103954"/>
<path d="M102.442 43.0871C104.496 43.0871 106.902 42.4176 108.994 39.0221C109.274 38.5887 109.708 38.3141 109.708 38.8632V39.2581C109.708 41.2714 110.18 42.4947 111.877 42.4947H121.553C120.487 41.4303 120.169 40.0865 120.169 37.8373V3.99312C120.169 3.20325 120.13 2.4519 118.988 2.4519C116.654 2.4519 109.428 6.0834 107.851 6.75287C107.769 6.7914 107.418 6.87327 107.418 7.26821C107.418 7.74021 107.89 7.77874 108.011 7.81727C109.867 8.44821 109.708 10.3844 109.708 10.8564V16.3807C109.708 17.368 109.235 17.4065 109.076 17.4065C108.285 17.4065 106.825 14.2904 102.442 14.2904C94.6614 14.2904 91.2674 22.141 91.2674 29.2402C91.2674 36.8933 95.3315 43.0871 102.442 43.0871ZM106.863 18.4324C109.312 18.4324 109.708 22.218 109.708 24.2313V31.9229C109.708 34.0902 109.389 38.1552 106.232 38.1552C101.849 38.1552 101.69 32.7128 101.69 28.1373C101.69 23.8363 102.481 18.4324 106.863 18.4324Z" fill="#103954"/>
<path d="M122.736 36.3393C122.736 40.1298 125.932 43.087 129.765 43.087C135.41 43.087 136.557 39.417 138.216 39.417C138.804 39.417 139.122 40.1298 139.238 40.7992C139.435 41.8636 140.11 42.4946 141.291 42.4946H150.967C149.902 41.4302 149.583 40.0864 149.583 37.8372V26.124C149.583 20.4841 145.322 14.2903 136.239 14.2903C132.055 14.2903 127.909 14.8779 125.223 17.445C124.196 18.389 124.433 19.8098 124.433 21.1535V23.3209C124.433 23.9951 125.026 24.5827 125.657 24.5827C128.106 24.5827 130.671 16.5395 135.646 16.4576C138.568 16.4191 139.083 18.7068 139.083 20.4407C139.083 21.1535 138.804 21.9434 137.661 22.1794C130.237 23.7158 122.736 27.9397 122.736 36.3393ZM137.661 24.7417C138.727 24.7417 139.083 25.4111 139.083 27.1884C139.083 29.635 139.122 31.0944 139.122 33.5796C139.122 36.1419 138.057 38.078 135.921 38.078C132.999 38.078 132.17 35.3953 132.17 32.6308C132.17 27.7808 135.092 24.7417 137.661 24.7417Z" fill="#103954"/>
<path d="M151.755 38.5885C151.755 40.3272 152.069 42.4946 153.886 42.4946H174.501C176 42.4946 175.802 42.1767 175.802 39.6529C175.802 39.022 175.841 35.0389 175.841 33.6952C175.841 32.7126 175.764 32.4333 175.407 32.4333C174.578 32.4333 174.144 34.485 170.948 34.485H165.418C164.232 34.485 163.76 33.8541 163.76 32.6741C163.76 27.6218 176.632 20.9175 176.632 16.0241C176.632 14.6418 174.737 14.8778 173.985 14.8778H151.953V22.7718C151.953 23.3208 152.267 23.8747 152.821 23.8747C153.886 23.8747 153.886 22.7718 157.242 22.7718H166.247C166.956 22.7718 167.906 22.7718 167.906 23.5183C167.906 25.5315 151.755 30.107 151.755 38.5885Z" fill="#103954"/>
<path d="M178.21 29.4376C178.21 37.2063 185.08 43.087 192.663 43.087C200.242 43.087 203.597 37.7216 203.597 34.7211C203.597 34.0516 203.245 33.8927 202.965 33.8927C202.18 33.8927 201.587 35.9444 197.836 35.9444C193.295 35.9444 186.936 31.8843 186.936 30.4634C186.936 29.794 187.447 29.8325 187.842 29.8325C194.794 29.8325 203.399 31.3689 203.399 24.8235C203.399 19.3763 199.412 14.2903 192.383 14.2903C183.146 14.2903 178.21 20.7971 178.21 29.4376ZM182.631 22.2179C182.631 19.9687 184.959 18.5864 187.172 18.5864C190.489 18.5864 195.228 20.8742 195.228 24.9777C195.228 27.6218 190.846 27.9397 187.133 27.9397C183.932 27.9397 182.631 25.021 182.631 22.2179Z" fill="#103954"/>
</svg>
