<svg xmlns="http://www.w3.org/2000/svg" xmlns:xlink="http://www.w3.org/1999/xlink" width="500" zoomAndPan="magnify" viewBox="0 0 375 374.999991" height="500" preserveAspectRatio="xMidYMid meet" version="1.0"><defs><g/></defs><g fill="#ffffff" fill-opacity="1"><g transform="translate(103.330164, 198.374987)"><g><path d="M 0.160156 -28.125 C 1.695312 -27.707031 1.535156 -26.042969 1.535156 -25.660156 L 1.535156 -3.777344 C 1.535156 -1.953125 1.28125 -0.863281 0.414062 0 L 11.132812 0 C 10.269531 -0.863281 10.015625 -1.953125 10.015625 -3.777344 L 10.015625 -12.476562 C 10.015625 -16.03125 11.359375 -17.019531 12.828125 -17.019531 C 14.238281 -17.019531 14.652344 -15.644531 14.652344 -14.171875 L 14.652344 -3.777344 C 14.652344 -1.953125 14.398438 -0.863281 13.535156 0 L 24.253906 0 C 23.386719 -0.863281 23.132812 -1.953125 23.132812 -3.777344 L 23.132812 -9.246094 L 23.101562 -15.359375 C 23.101562 -18.683594 22.300781 -22.875 17.628906 -22.875 C 12.222656 -22.875 11.550781 -18.429688 10.238281 -18.429688 C 10.207031 -18.429688 10.109375 -18.429688 10.015625 -18.429688 L 10.015625 -31.226562 C 10.015625 -31.867188 9.984375 -32.476562 9.054688 -32.476562 C 7.167969 -32.476562 1.28125 -29.59375 0.03125 -28.988281 C -0.03125 -28.957031 -0.320312 -28.890625 -0.320312 -28.570312 C -0.320312 -28.1875 0.0625 -28.15625 0.160156 -28.125 Z M 0.160156 -28.125 "/></g></g></g><g fill="#ffffff" fill-opacity="1"><g transform="translate(128.220043, 198.374987)"><g><path d="M 4.0625 -2.816406 C 6.238281 -0.609375 9.085938 0.480469 12 0.480469 C 14.972656 0.480469 18.011719 -0.703125 20.347656 -3.070312 C 24.925781 -7.710938 25.050781 -15.070312 20.605469 -19.550781 C 18.429688 -21.757812 15.582031 -22.84375 12.671875 -22.84375 C 9.695312 -22.84375 6.65625 -21.660156 4.320312 -19.324219 C -0.289062 -14.6875 -0.382812 -7.328125 4.0625 -2.816406 Z M 10.78125 -21.148438 C 12.863281 -21.46875 15.230469 -17.246094 16.0625 -11.710938 C 16.894531 -6.078125 15.902344 -1.375 13.855469 -1.054688 C 11.773438 -0.734375 9.40625 -4.925781 8.542969 -10.496094 C 7.679688 -16.09375 8.671875 -20.828125 10.78125 -21.148438 Z M 10.78125 -21.148438 "/></g></g></g><g fill="#ffffff" fill-opacity="1"><g transform="translate(152.885985, 198.374987)"><g><path d="M 0.160156 -28.125 C 1.695312 -27.707031 1.535156 -26.042969 1.535156 -25.660156 L 1.535156 -2.625 C 1.535156 -0.992188 1.917969 0 3.296875 0 L 11.132812 0 C 10.269531 -0.863281 10.015625 -1.953125 10.015625 -3.777344 L 10.015625 -31.226562 C 10.015625 -31.867188 9.984375 -32.476562 9.054688 -32.476562 C 7.167969 -32.476562 1.28125 -29.59375 0.03125 -28.988281 C -0.03125 -28.957031 -0.320312 -28.890625 -0.320312 -28.570312 C -0.320312 -28.1875 0.0625 -28.15625 0.160156 -28.125 Z M 0.160156 -28.125 "/></g></g></g><g fill="#ffffff" fill-opacity="1"><g transform="translate(164.339174, 198.374987)"><g><path d="M 0 -18.972656 C 0 -18.589844 0.382812 -18.558594 0.480469 -18.523438 C 1.695312 -18.109375 1.535156 -16.445312 1.535156 -16.0625 L 1.535156 -3.777344 C 1.535156 -1.953125 1.28125 -0.863281 0.414062 0 L 11.132812 0 C 10.269531 -0.863281 10.015625 -1.953125 10.015625 -3.777344 L 10.015625 -21.628906 C 10.015625 -22.269531 9.984375 -22.875 9.054688 -22.875 C 7.167969 -22.875 1.601562 -19.996094 0.351562 -19.390625 C 0.289062 -19.355469 0 -19.292969 0 -18.972656 Z M 5.695312 -33.882812 C 2.878906 -33.882812 1.023438 -32.027344 1.023438 -29.210938 C 1.023438 -26.394531 2.878906 -24.539062 5.695312 -24.539062 C 8.511719 -24.539062 10.367188 -26.394531 10.367188 -29.210938 C 10.367188 -32.027344 8.511719 -33.882812 5.695312 -33.882812 Z M 5.695312 -33.882812 "/></g></g></g><g fill="#ffffff" fill-opacity="1"><g transform="translate(175.632398, 198.374987)"><g><path d="M 9.855469 0.480469 C 11.519531 0.480469 13.46875 -0.0625 15.164062 -2.816406 C 15.390625 -3.167969 15.742188 -3.390625 15.742188 -2.945312 L 15.742188 -2.625 C 15.742188 -0.992188 16.125 0 17.5 0 L 25.339844 0 C 24.476562 -0.863281 24.21875 -1.953125 24.21875 -3.777344 L 24.21875 -31.226562 C 24.21875 -31.867188 24.1875 -32.476562 23.261719 -32.476562 C 21.371094 -32.476562 15.515625 -29.53125 14.238281 -28.988281 C 14.171875 -28.957031 13.886719 -28.890625 13.886719 -28.570312 C 13.886719 -28.1875 14.269531 -28.15625 14.367188 -28.125 C 15.871094 -27.613281 15.742188 -26.042969 15.742188 -25.660156 L 15.742188 -21.179688 C 15.742188 -20.378906 15.359375 -20.347656 15.230469 -20.347656 C 14.589844 -20.347656 13.40625 -22.875 9.855469 -22.875 C 3.550781 -22.875 0.800781 -16.507812 0.800781 -10.75 C 0.800781 -4.542969 4.09375 0.480469 9.855469 0.480469 Z M 13.4375 -19.515625 C 15.421875 -19.515625 15.742188 -16.445312 15.742188 -14.8125 L 15.742188 -8.574219 C 15.742188 -6.816406 15.484375 -3.519531 12.925781 -3.519531 C 9.375 -3.519531 9.246094 -7.933594 9.246094 -11.644531 C 9.246094 -15.132812 9.886719 -19.515625 13.4375 -19.515625 Z M 13.4375 -19.515625 "/></g></g></g><g fill="#ffffff" fill-opacity="1"><g transform="translate(201.13013, 198.374987)"><g><path d="M 0.800781 -4.992188 C 0.800781 -1.917969 3.390625 0.480469 6.496094 0.480469 C 11.070312 0.480469 12 -2.496094 13.34375 -2.496094 C 13.820312 -2.496094 14.078125 -1.917969 14.171875 -1.375 C 14.332031 -0.511719 14.878906 0 15.835938 0 L 23.675781 0 C 22.8125 -0.863281 22.554688 -1.953125 22.554688 -3.777344 L 22.554688 -13.277344 C 22.554688 -17.851562 19.101562 -22.875 11.742188 -22.875 C 8.351562 -22.875 4.992188 -22.398438 2.816406 -20.316406 C 1.984375 -19.550781 2.175781 -18.398438 2.175781 -17.308594 L 2.175781 -15.550781 C 2.175781 -15.003906 2.65625 -14.527344 3.167969 -14.527344 C 5.152344 -14.527344 7.230469 -21.050781 11.261719 -21.117188 C 13.628906 -21.148438 14.046875 -19.292969 14.046875 -17.886719 C 14.046875 -17.308594 13.820312 -16.667969 12.894531 -16.476562 C 6.878906 -15.230469 0.800781 -11.804688 0.800781 -4.992188 Z M 12.894531 -14.398438 C 13.757812 -14.398438 14.046875 -13.855469 14.046875 -12.414062 C 14.046875 -10.429688 14.078125 -9.246094 14.078125 -7.230469 C 14.078125 -5.152344 13.214844 -3.582031 11.484375 -3.582031 C 9.117188 -3.582031 8.445312 -5.757812 8.445312 -8 C 8.445312 -11.933594 10.8125 -14.398438 12.894531 -14.398438 Z M 12.894531 -14.398438 "/></g></g></g><g fill="#ffffff" fill-opacity="1"><g transform="translate(224.964269, 198.374987)"><g><path d="M 0.480469 -3.167969 C 0.480469 -1.757812 0.734375 0 2.207031 0 L 18.910156 0 C 20.125 0 19.964844 -0.257812 19.964844 -2.304688 C 19.964844 -2.816406 19.996094 -6.046875 19.996094 -7.136719 C 19.996094 -7.933594 19.933594 -8.160156 19.644531 -8.160156 C 18.972656 -8.160156 18.621094 -6.496094 16.03125 -6.496094 L 11.550781 -6.496094 C 10.589844 -6.496094 10.207031 -7.007812 10.207031 -7.964844 C 10.207031 -12.0625 20.636719 -17.5 20.636719 -21.46875 C 20.636719 -22.589844 19.101562 -22.398438 18.492188 -22.398438 L 0.640625 -22.398438 L 0.640625 -15.996094 C 0.640625 -15.550781 0.894531 -15.101562 1.34375 -15.101562 C 2.207031 -15.101562 2.207031 -15.996094 4.925781 -15.996094 L 12.222656 -15.996094 C 12.796875 -15.996094 13.566406 -15.996094 13.566406 -15.390625 C 13.566406 -13.757812 0.480469 -10.046875 0.480469 -3.167969 Z M 0.480469 -3.167969 "/></g></g></g><g fill="#ffffff" fill-opacity="1"><g transform="translate(246.079075, 198.374987)"><g><path d="M 0.800781 -10.589844 C 0.800781 -4.289062 6.367188 0.480469 12.511719 0.480469 C 18.652344 0.480469 21.371094 -3.871094 21.371094 -6.304688 C 21.371094 -6.847656 21.085938 -6.976562 20.859375 -6.976562 C 20.222656 -6.976562 19.742188 -5.3125 16.703125 -5.3125 C 13.023438 -5.3125 7.871094 -8.605469 7.871094 -9.757812 C 7.871094 -10.300781 8.285156 -10.269531 8.605469 -10.269531 C 14.238281 -10.269531 21.210938 -9.023438 21.210938 -14.332031 C 21.210938 -18.75 17.980469 -22.875 12.285156 -22.875 C 4.800781 -22.875 0.800781 -17.597656 0.800781 -10.589844 Z M 4.382812 -16.445312 C 4.382812 -18.269531 6.269531 -19.390625 8.0625 -19.390625 C 10.75 -19.390625 14.589844 -17.535156 14.589844 -14.207031 C 14.589844 -12.0625 11.039062 -11.804688 8.03125 -11.804688 C 5.4375 -11.804688 4.382812 -14.171875 4.382812 -16.445312 Z M 4.382812 -16.445312 "/></g></g></g></svg>